<svg xmlns="http://www.w3.org/2000/svg" width="35.906" height="35.906" viewBox="0 0 16 16"><path d="M4.754 5.376a.57.57 0 0 0-.156-.188c-.063-.046-.14-.073-.226-.09.06-.065.107-.133.13-.206a.59.59 0 0 0 .016-.243.57.57 0 0 0 .236.06c.077 0 .156-.023.237-.061-.011.088-.008.17.016.243s.07.141.13.206a.57.57 0 0 0-.226.09.57.57 0 0 0-.156.188z"/><path d="M8.559.169c0 .449-.293.897-.535.897S7.488.62 7.488.171C5.993.263 5.333.87 5.333 2.848c0 .523.088 1.081.239 1.627a.898.898 0 0 1 1.155.313.898.898 0 0 1 .119.288c.069.038.128.095.169.166l.777 1.219a1.793 1.793 0 0 0-.845.342l-.495-.778A.898.898 0 0 1 5.075 5.3a.898.898 0 0 1 .156-.527 6.24 6.24 0 0 0-1.509-.756c-.53-.172-.972-.261-1.346-.269-.957-.02-1.471.49-1.866 1.493.427.139.763.556.688.787S.607 6.399.18 6.26c-.375 1.449-.002 2.265 1.88 2.876.72.234 1.568.312 2.383.272-.683.446-1.324 1.009-1.768 1.62-1.163 1.602-.984 2.48.172 3.433.264-.363.764-.555.961-.413s.17.679-.095 1.041c1.263.805 2.154.701 3.317-.899.406-.558.72-1.259.935-1.975a.898.898 0 0 1-1.669-.617.898.898 0 0 1 .949-.696l.215-.963a1.793 1.793 0 0 0 .561.091 1.793 1.793 0 0 0 .347-.035l-.287 1.295c-.014.063-.041.119-.077.168a.898.898 0 0 1 .031.582c.214.777.546 1.545.985 2.15 1.163 1.602 2.054 1.704 3.317.899-.263-.363-.292-.899-.095-1.041s.697.048.962.413c1.156-.953 1.334-1.831.171-3.433-.35-.481-.822-.931-1.338-1.318a.898.898 0 0 1-.809.229.898.898 0 0 1-.699-.858l-.836-.186a1.793 1.793 0 0 0 .108-.896l1.207.269a.898.898 0 0 1 1.29.99.898.898 0 0 1-.052.158c.608-.017 1.211-.106 1.744-.279h.001c1.881-.612 2.253-1.427 1.879-2.878-.427.139-.944 0-1.019-.232s.26-.648.688-.787c-.549-1.393-1.329-1.834-3.21-1.224-.72.234-1.453.67-2.088 1.182.29-.763.478-1.593.478-2.351 0-1.978-.661-2.585-2.156-2.677zm.34 2.837a.898.898 0 0 1 .645 1.518c.013.066.013.134-.004.201L9.08 6.792a1.793 1.793 0 0 0-.847-.335l.378-1.7a.898.898 0 0 1 .287-1.751zm1.89 2.468a.898.898 0 0 1 .637 1.641.898.898 0 0 1-.798.079l-.88.56a1.793 1.793 0 0 0-.452-.777l.764-.485a.898.898 0 0 1 .73-1.018zm-6.62 1.062a.898.898 0 0 1 .548.373c.065-.014.133-.014.2.003l1.596.356a1.793 1.793 0 0 0-.282.856L4.779 7.8a.898.898 0 0 1-1.411.272.898.898 0 0 1 .801-1.535zm2.17 2.325a1.793 1.793 0 0 0 .513.737l-.719.458a.898.898 0 0 1-1.651.413.898.898 0 0 1 1.256-1.224zm3.194.336l1.21 1.9c.033.053.053.111.062.17a.898.898 0 0 1 .41.718.898.898 0 1 1-1.416-.7l-.935-1.467a1.793 1.793 0 0 0 .668-.621z"/></svg>