<svg xmlns="http://www.w3.org/2000/svg" width="35.906" height="35.906" viewBox="0 0 9.5 9.5"><path d="M8.272 5.5c1.11-.361 1.33-.842 1.109-1.698-.252.082-.557 0-.601-.137s.154-.382.406-.464c-.324-.822-.784-1.082-1.894-.722-.425.138-.857.395-1.232.697.171-.45.282-.94.282-1.387 0-1.167-.39-1.525-1.272-1.579 0 .265-.173.529-.316.529S4.438.476 4.438.211C3.556.265 3.166.623 3.166 1.79c0 .447.11.937.282 1.387-.375-.302-.807-.559-1.232-.697-1.111-.361-1.571-.101-1.895.722.252.082.45.328.406.464s-.349.219-.601.137C-.095 4.658.125 5.139 1.235 5.5c.425.138.925.184 1.406.16-.403.263-.781.595-1.043.956-.686.945-.581 1.463.101 2.025.156-.214.451-.327.567-.243s.1.4-.056.614c.745.475 1.271.414 1.957-.53.263-.361.461-.823.587-1.288.126.465.324.926.587 1.288.686.945 1.212 1.005 1.957.53-.155-.214-.172-.53-.056-.614s.411.028.567.243c.682-.562.787-1.08.101-2.025-.263-.361-.64-.693-1.043-.956.48.024.981-.022 1.406-.16zm-3.518-.124c-.043-.077-.093-.142-.156-.188s-.14-.073-.226-.09c.06-.065.107-.133.13-.206s.026-.155.016-.243c.08.037.159.06.236.06s.156-.023.237-.061c-.011.088-.008.17.016.243s.07.141.13.206a.57.57 0 0 0-.226.09.57.57 0 0 0-.156.188z" fill="#88c0d0"/><g fill="#fff"><path d="M4.671 4.848c-.015.069-.057.128-.116.166s-.131.05-.199.035l-1.55-.345c-.094-.019-.17-.087-.199-.178s-.007-.191.058-.261.163-.1.256-.077l1.55.345c.143.032.233.173.201.315zm.258.058c.015-.069.057-.128.116-.166s.131-.05.199-.035l1.55.345c.094.019.171.087.201.178s.007.192-.058.262-.164.1-.257.077l-1.55-.345c-.069-.015-.128-.057-.166-.116s-.05-.131-.035-.199z"/><path d="M4.93 4.906c-.123.078-.287.042-.365-.081l-.852-1.339c-.055-.08-.062-.183-.019-.27s.131-.142.228-.145.188.047.237.131l.853 1.339c.078.123.042.287-.081.365zm.211.331c.123-.078.287-.042.365.081l.853 1.339c.077.123.04.286-.082.364s-.286.042-.365-.08L5.06 5.603c-.078-.123-.042-.287.081-.365z"/><path d="M4.987 4.648c-.143-.032-.233-.173-.201-.316l.345-1.55c.018-.095.086-.173.178-.203s.193-.008.264.059.099.166.075.26l-.344 1.55c-.015.069-.057.128-.116.166s-.131.05-.2.035zm-.057.258c.069.015.128.057.166.116s.05.131.035.199l-.344 1.55c-.032.142-.173.232-.316.2s-.232-.172-.202-.315l.345-1.55c.015-.069.057-.128.116-.166s.131-.05.199-.035z"/><path d="M4.93 4.906c-.038-.059-.05-.131-.035-.199s.057-.128.116-.166l1.339-.852c.08-.054.182-.06.268-.016s.141.13.144.227-.046.186-.128.236l-1.339.852c-.059.038-.131.05-.199.035s-.128-.057-.166-.116z"/><path d="M4.93 4.906c.038.059.05.131.035.2s-.057.128-.116.166l-1.339.853c-.08.052-.181.057-.266.013s-.139-.129-.143-.225.044-.185.125-.235l1.339-.853c.123-.078.287-.042.365.081z"/></g><path d="M5.812 6.76a.53.53 0 0 1 .826.421.53.53 0 0 1-.976.301.53.53 0 0 1 .15-.722zM3.838 3.658a.53.53 0 0 1-.824-.421.53.53 0 0 1 .975-.303.53.53 0 0 1-.152.724zm.508 2.889a.53.53 0 0 1 .291.884.53.53 0 0 1-.903-.478.53.53 0 0 1 .612-.406zm.804-3.615a.53.53 0 0 1-.276-.875.53.53 0 0 1 .898.199.53.53 0 0 1-.621.676zM3.558 5.717a.53.53 0 0 1-.162.731.53.53 0 0 1-.731-.162.53.53 0 0 1 .162-.731.53.53 0 0 1 .731.162zM6.03 4.145a.53.53 0 0 1 .163-.731.53.53 0 0 1 .731.163.53.53 0 0 1-.163.731.53.53 0 0 1-.731-.163zm.21 1.197a.53.53 0 0 1 .632-.402.53.53 0 0 1 .402.631.53.53 0 0 1-.631.402.53.53 0 0 1-.402-.631zm-3.358-.746a.53.53 0 0 1-.875.276.53.53 0 0 1 .473-.906.53.53 0 0 1 .402.63z" fill="#81a1c1"/><circle cx="4.752" cy="4.97" r="1.058" fill="#5e81ac"/></svg>