<?xml version="1.0" encoding="UTF-8" standalone="no"?>
<svg
   width="159.83"
   height="34.363"
   version="1.1"
   id="svg29"
   sodipodi:docname="logo.svg"
   inkscape:version="1.1.1 (3bf5ae0d25, 2021-09-20, custom)"
   xmlns:inkscape="http://www.inkscape.org/namespaces/inkscape"
   xmlns:sodipodi="http://sodipodi.sourceforge.net/DTD/sodipodi-0.dtd"
   xmlns="http://www.w3.org/2000/svg"
   xmlns:svg="http://www.w3.org/2000/svg">
  <defs
     id="defs33" />
  <sodipodi:namedview
     id="namedview31"
     pagecolor="#ffffff"
     bordercolor="#666666"
     borderopacity="1.0"
     inkscape:pageshadow="2"
     inkscape:pageopacity="0.0"
     inkscape:pagecheckerboard="0"
     showgrid="false"
     inkscape:zoom="2.4776325"
     inkscape:cx="120.67972"
     inkscape:cy="61.752501"
     inkscape:window-width="1600"
     inkscape:window-height="870"
     inkscape:window-x="0"
     inkscape:window-y="30"
     inkscape:window-maximized="1"
     inkscape:current-layer="svg29" />
  <path
     fill="#F4ABBA"
     d="M31.078 19.989c4.197-1.363 5.027-3.182 4.191-6.416-.952.308-2.105-.001-2.272-.518-.168-.513.581-1.443 1.533-1.753-1.223-3.107-2.964-4.089-7.16-2.727-1.607.522-3.239 1.492-4.656 2.635.648-1.701 1.066-3.553 1.066-5.242 0-4.412-1.473-5.765-4.807-5.968 0 1-.652 2-1.193 2-.54 0-1.194-1-1.194-2-3.334.203-4.806 1.556-4.806 5.968 0 1.689.417 3.541 1.066 5.241-1.416-1.142-3.049-2.111-4.655-2.633-4.197-1.364-5.938-.381-7.162 2.727.951.31 1.701 1.238 1.534 1.753-.167.515-1.32.826-2.27.518-.838 3.233-.006 5.052 4.19 6.415 1.605.521 3.496.697 5.313.605-1.524.994-2.95 2.247-3.943 3.613-2.594 3.57-2.197 5.53.381 7.654.588-.809 1.703-1.235 2.142-.917.438.317.378 1.511-.21 2.32 2.816 1.795 4.803 1.565 7.396-2.003.993-1.366 1.743-3.111 2.218-4.867.475 1.757 1.226 3.501 2.218 4.867 2.594 3.57 4.58 3.798 7.397 2.003-.587-.81-.649-2.002-.21-2.321.437-.317 1.553.107 2.142.917 2.577-2.123 2.973-4.083.381-7.653-.993-1.366-2.42-2.619-3.943-3.613 1.816.092 3.706-.084 5.313-.605zm-13.298-.47c-.162-.292-.353-.538-.588-.709-.234-.171-.528-.276-.856-.341.228-.244.403-.502.493-.778.09-.275.1-.587.06-.919.301.141.601.228.891.228.29 0 .59-.087.894-.229-.04.332-.03.644.06.919.09.276.264.534.491.778-.327.065-.62.17-.855.341-.236.172-.428.418-.59.71z"
     style="fill:#88c0d0;fill-opacity:1"
     id="path9"
     inkscape:export-filename="/home/auctumnus/path9.png"
     inkscape:export-xdpi="846.66699"
     inkscape:export-ydpi="846.66699" />
  <g
     fill="#fff"
     id="g21"
     inkscape:export-filename="/home/auctumnus/path9.png"
     inkscape:export-xdpi="846.66699"
     inkscape:export-ydpi="846.66699">
    <path
       d="M17.481 17.529a1 1 0 0 1-1.193.76l-5.858-1.302a1 1 0 1 1 .434-1.952l5.857 1.302c.54.12.88.653.76 1.192zm.976.218a1 1 0 0 1 1.193-.76l5.857 1.302a1 1 0 1 1-.433 1.952l-5.857-1.302a.998.998 0 0 1-.76-1.192z"
       id="path11" />
    <path
       d="M18.457 17.747a1 1 0 0 1-1.38-.308l-3.22-5.061a1 1 0 1 1 1.686-1.073l3.222 5.062a1.001 1.001 0 0 1-.308 1.38zm.797 1.252a1 1 0 0 1 1.38.307l3.223 5.062a1 1 0 0 1-1.689 1.074l-3.22-5.062a1.003 1.003 0 0 1 .306-1.381z"
       id="path13" />
    <path
       d="M18.674 16.771a1 1 0 0 1-.759-1.193l1.302-5.857a1 1 0 1 1 1.951.434l-1.3 5.857a1 1 0 0 1-1.194.759zm-.217.976a.998.998 0 0 1 .76 1.192l-1.3 5.857a1 1 0 0 1-1.955-.433l1.303-5.857a.998.998 0 0 1 1.192-.759z"
       id="path15" />
    <path
       d="M18.457 17.746a.999.999 0 0 1 .307-1.38l5.062-3.221a1 1 0 1 1 1.073 1.687l-5.062 3.221a.998.998 0 0 1-1.38-.307z"
       id="path17" />
    <path
       d="M18.457 17.746a1 1 0 0 1-.307 1.381l-5.062 3.222a1 1 0 1 1-1.074-1.688l5.062-3.222a1.002 1.002 0 0 1 1.381.307z"
       id="path19" />
  </g>
  <path
     d="M21.792 24.748a2.001 2.001 0 1 1 2.146 3.376 2.001 2.001 0 0 1-2.146-3.376zM14.33 13.023a2 2 0 1 1-2.148-3.373 2 2 0 0 1 2.148 3.373zm1.92 10.918a2.002 2.002 0 1 1-.867 3.906 2.002 2.002 0 0 1 .867-3.906zm3.037-13.665a2 2 0 1 1 .868-3.905 2 2 0 1 1-.868 3.905zm-6.013 10.53a2 2 0 1 1-3.375 2.15 2 2 0 0 1 3.375-2.15zm9.34-5.943a2 2 0 1 1 3.376-2.147 2 2 0 0 1-3.377 2.147zm.794 4.524a2.002 2.002 0 0 1 2.387-1.52 2 2 0 1 1-2.387 1.52zm-12.69-2.821a2 2 0 1 1-3.905-.868 2 2 0 0 1 3.905.868z"
     fill="#EA596E"
     style="fill:#81a1c1;fill-opacity:1"
     id="path23"
     inkscape:export-filename="/home/auctumnus/path9.png"
     inkscape:export-xdpi="846.66699"
     inkscape:export-ydpi="846.66699" />
  <circle
     fill="#FFCC4D"
     cx="17.78"
     cy="18"
     r="4"
     style="fill:#5e81ac;fill-opacity:1"
     id="circle25"
     inkscape:export-filename="/home/auctumnus/path9.png"
     inkscape:export-xdpi="846.66699"
     inkscape:export-ydpi="846.66699" />
  <path
     d="M42.23 32.507V3.417h5.27v12.315h13.48V3.416h5.284v29.091H60.98V20.15H47.5v12.358zM78.04 32.948q-3.125 0-5.213-1.677-2.088-1.676-2.088-4.886 0-2.457 1.179-3.807Q73.11 21.215 75 20.604q1.904-.625 4.02-.852 2.884-.313 4.134-.583 1.264-.27 1.264-1.378v-.085q0-1.605-.952-2.486-.952-.88-2.741-.88-1.89 0-2.998.824-1.093.823-1.477 1.946l-4.801-.682q.852-2.983 3.324-4.503 2.486-1.52 5.923-1.52 1.563 0 3.125.37 1.563.369 2.855 1.22 1.307.853 2.088 2.302.796 1.449.796 3.608v14.602h-4.943V29.51h-.17q-.697 1.378-2.274 2.415-1.562 1.023-4.133 1.023zm1.335-3.779q2.33 0 3.693-1.335 1.364-1.335 1.364-3.153V22.11q-.327.27-1.207.483-.867.198-1.847.34l-1.662.242q-1.719.241-2.87.952-1.15.696-1.15 2.173 0 1.42 1.037 2.145 1.037.724 2.642.724zM99.886 19.723v12.784h-5.142V10.69h4.915v3.707h.256q.753-1.818 2.4-2.897 1.662-1.094 4.106-1.094 3.38 0 5.426 2.145 2.06 2.145 2.045 6.065v13.892h-5.142V19.411q0-2.188-1.136-3.424-1.122-1.235-3.111-1.235-2.031 0-3.324 1.306-1.293 1.293-1.293 3.665zM125.412 32.948q-3.125 0-5.213-1.677-2.088-1.676-2.088-4.886 0-2.457 1.179-3.807 1.193-1.363 3.082-1.974 1.904-.625 4.02-.852 2.884-.313 4.134-.583 1.264-.27 1.264-1.378v-.085q0-1.605-.952-2.486-.952-.88-2.741-.88-1.89 0-2.997.824-1.094.823-1.478 1.946l-4.8-.682q.851-2.983 3.323-4.503 2.486-1.52 5.923-1.52 1.563 0 3.125.37 1.563.369 2.855 1.22 1.307.853 2.088 2.302.796 1.449.796 3.608v14.602h-4.943V29.51h-.17q-.697 1.378-2.273 2.415-1.563 1.023-4.134 1.023zm1.335-3.779q2.33 0 3.693-1.335 1.364-1.335 1.364-3.153V22.11q-.327.27-1.207.483-.867.198-1.847.34l-1.662.242q-1.719.241-2.87.952-1.15.696-1.15 2.173 0 1.42 1.037 2.145 1.037.724 2.642.724zM159.36 16.456l-4.687.512q-.298-1.08-1.278-1.904-.966-.824-2.742-.824-1.605 0-2.698.696-1.08.696-1.066 1.804-.014.952.696 1.563.725.596 2.387.966l3.721.795q6.122 1.335 6.137 5.91 0 2.059-1.194 3.636-1.193 1.562-3.295 2.443-2.102.88-4.83.88-4.02 0-6.448-1.69-2.43-1.69-2.912-4.687l5.014-.483q.667 2.983 4.332 2.983 1.833 0 2.94-.74 1.123-.752 1.123-1.874 0-1.832-2.94-2.486l-3.722-.781q-3.14-.654-4.645-2.202-1.506-1.562-1.492-3.949 0-2.017 1.108-3.494 1.108-1.491 3.097-2.301 1.989-.824 4.616-.824 3.836 0 6.037 1.648 2.216 1.633 2.742 4.403z"
     style="font-style:normal;font-variant:normal;font-weight:600;font-stretch:normal;font-size:40px;line-height:1.25;font-family:Inter;-inkscape-font-specification:'Inter Semi-Bold';stroke-width:1.00157;stroke-miterlimit:4;stroke-dasharray:none;fill:#2e3440;fill-opacity:1"
     id="path27" />
</svg>
