<?xml version="1.0" encoding="UTF-8" standalone="no"?>
<svg
   width="35.906"
   height="35.906"
   viewBox="0 0 9.5 9.5"
   version="1.1"
   id="svg27"
   sodipodi:docname="logo-mask.svg"
   inkscape:version="1.1.2 (0a00cf5339, 2022-02-04, custom)"
   xmlns:inkscape="http://www.inkscape.org/namespaces/inkscape"
   xmlns:sodipodi="http://sodipodi.sourceforge.net/DTD/sodipodi-0.dtd"
   xmlns="http://www.w3.org/2000/svg"
   xmlns:svg="http://www.w3.org/2000/svg">
  <defs
     id="defs31" />
  <sodipodi:namedview
     id="namedview29"
     pagecolor="#ffffff"
     bordercolor="#666666"
     borderopacity="1.0"
     inkscape:pageshadow="2"
     inkscape:pageopacity="0.0"
     inkscape:pagecheckerboard="0"
     showgrid="false"
     inkscape:zoom="14.757782"
     inkscape:cx="20.124975"
     inkscape:cy="21.785116"
     inkscape:window-width="1600"
     inkscape:window-height="870"
     inkscape:window-x="0"
     inkscape:window-y="30"
     inkscape:window-maximized="1"
     inkscape:current-layer="svg27" />
  <path
     d="M 4.754,5.376 C 4.711,5.299 4.661,5.234 4.598,5.188 4.535,5.142 4.458,5.115 4.372,5.098 4.432,5.033 4.479,4.965 4.502,4.892 4.525,4.819 4.528,4.737 4.518,4.649 c 0.08,0.037 0.159,0.06 0.236,0.06 0.077,0 0.156,-0.023 0.237,-0.061 -0.011,0.088 -0.008,0.17 0.016,0.243 0.024,0.073 0.07,0.141 0.13,0.206 A 0.57,0.57 0 0 0 4.911,5.187 0.57,0.57 0 0 0 4.755,5.375 Z"
     id="path115" />
  <path
     id="path9"
     style="stroke-width:3.77958"
     d="M 19.162109 0.79296875 C 19.162109 1.7945571 18.50923 2.7929688 17.96875 2.7929688 C 17.42827 2.7929688 16.773436 1.7984634 16.773438 0.796875 C 13.439848 1.0009723 11.966797 2.3548566 11.966797 6.765625 C 11.966797 7.9315055 12.163641 9.1749993 12.5 10.392578 A 2.0031767 2.0031767 0 0 1 15.076172 11.089844 A 2.0031767 2.0031767 0 0 1 15.341797 11.732422 C 15.49575 11.817916 15.626617 11.943621 15.71875 12.101562 L 17.451172 14.820312 A 3.9987942 3.9987942 0 0 0 15.566406 15.583984 L 14.462891 13.849609 A 2.0031767 2.0031767 0 0 1 11.392578 12.234375 A 2.0031767 2.0031767 0 0 1 11.740234 11.058594 C 10.662538 10.337934 9.5119628 9.7422254 8.375 9.3730469 C 7.1939997 8.9893015 6.2080914 8.7907383 5.3730469 8.7734375 C 3.2390441 8.7292242 2.09306 9.8658241 1.2128906 12.101562 C 2.1653445 12.411489 2.9143483 13.341446 2.7480469 13.855469 C 2.5817454 14.369491 1.4290163 14.682972 0.4765625 14.373047 C -0.35872441 17.604587 0.47263626 19.422681 4.6679688 20.787109 C 6.2742897 21.308691 8.1644445 21.483288 9.9824219 21.392578 C 8.4592516 22.386607 7.0293121 23.641431 6.0390625 25.005859 C 3.4462715 28.577561 3.8442023 30.536033 6.421875 32.660156 C 7.0114893 31.851326 8.126022 31.42275 8.5644531 31.740234 C 9.0028843 32.057719 8.9431299 33.25367 8.3535156 34.0625 C 11.169302 35.8578 13.157209 35.626516 15.75 32.058594 C 16.656298 30.814587 17.35618 29.252232 17.833984 27.654297 A 2.0031767 2.0031767 0 0 1 17.525391 28.085938 A 2.0031767 2.0031767 0 0 1 14.113281 26.279297 A 2.0031767 2.0031767 0 0 1 16.230469 24.726562 L 16.708984 22.580078 A 3.9987942 3.9987942 0 0 0 17.960938 22.783203 A 3.9987942 3.9987942 0 0 0 18.734375 22.705078 L 18.09375 25.591797 C 18.06221 25.731756 18.002276 25.858261 17.921875 25.966797 A 2.0031767 2.0031767 0 0 1 17.990234 27.263672 C 18.467307 28.995923 19.207477 30.709664 20.1875 32.058594 C 22.780291 35.630296 24.768198 35.8578 27.583984 34.0625 C 26.99815 33.25367 26.932663 32.057719 27.371094 31.740234 C 27.809525 31.42275 28.926011 31.847547 29.515625 32.660156 C 32.093298 30.536033 32.489275 28.577561 29.896484 25.005859 C 29.115016 23.933197 28.064572 22.930124 26.912109 22.066406 A 2.0031767 2.0031767 0 0 1 25.107422 22.576172 A 2.0031767 2.0031767 0 0 1 23.548828 20.662109 L 21.683594 20.248047 A 3.9987942 3.9987942 0 0 0 21.958984 18.785156 A 3.9987942 3.9987942 0 0 0 21.923828 18.25 L 24.615234 18.849609 A 2.0031767 2.0031767 0 0 1 25.972656 18.671875 A 2.0031767 2.0031767 0 0 1 27.492188 21.056641 A 2.0031767 2.0031767 0 0 1 27.376953 21.408203 C 28.731754 21.369535 30.076719 21.172914 31.265625 20.787109 L 31.267578 20.787109 C 35.461347 19.422747 36.292199 17.603997 35.457031 14.369141 C 34.504577 14.679066 33.351848 14.369366 33.185547 13.851562 C 33.019245 13.33376 33.766296 12.407582 34.71875 12.097656 C 33.494166 8.9908427 31.755879 8.0084923 27.560547 9.3691406 C 25.954226 9.8907225 24.321639 10.862473 22.904297 12.003906 C 23.550605 10.303096 23.970703 8.4511905 23.970703 6.7617188 C 23.970703 2.3509502 22.495698 0.997066 19.162109 0.79296875 z M 19.919922 7.1191406 A 2.0031767 2.0031767 0 0 1 21.816406 8.5273438 A 2.0031767 2.0031767 0 0 1 21.357422 10.503906 C 21.386698 10.650212 21.385981 10.803019 21.347656 10.953125 L 20.324219 15.560547 A 3.9987942 3.9987942 0 0 0 18.435547 14.814453 L 19.279297 11.023438 A 2.0031767 2.0031767 0 0 1 18.421875 7.7753906 A 2.0031767 2.0031767 0 0 1 19.919922 7.1191406 z M 24.134766 12.623047 A 2.0031767 2.0031767 0 0 1 26.169922 13.519531 A 2.0031767 2.0031767 0 0 1 25.554688 16.283203 A 2.0031767 2.0031767 0 0 1 23.775391 16.458984 L 21.8125 17.707031 A 3.9987942 3.9987942 0 0 0 20.804688 15.974609 L 22.507812 14.892578 A 2.0031767 2.0031767 0 0 1 23.40625 12.904297 A 2.0031767 2.0031767 0 0 1 24.134766 12.623047 z M 9.3730469 14.990234 A 2.0031767 2.0031767 0 0 1 10.595703 15.822266 C 10.740045 15.791244 10.892601 15.79142 11.041016 15.828125 L 14.599609 16.621094 A 3.9987942 3.9987942 0 0 0 13.970703 18.529297 L 10.732422 17.808594 A 2.0031767 2.0031767 0 0 1 7.5859375 18.414062 A 2.0031767 2.0031767 0 0 1 9.3730469 14.990234 z M 14.212891 20.173828 A 3.9987942 3.9987942 0 0 0 15.357422 21.816406 L 13.753906 22.837891 A 2.0031767 2.0031767 0 0 1 12.835938 24.371094 A 2.0031767 2.0031767 0 0 1 10.072266 23.757812 A 2.0031767 2.0031767 0 0 1 10.685547 20.996094 A 2.0031767 2.0031767 0 0 1 12.873047 21.027344 L 14.212891 20.173828 z M 21.335938 20.923828 L 24.035156 25.160156 C 24.109383 25.278726 24.15384 25.408662 24.173828 25.539062 A 2.0031767 2.0031767 0 0 1 25.087891 27.140625 A 2.0031767 2.0031767 0 0 1 21.400391 28.279297 A 2.0031767 2.0031767 0 0 1 21.929688 25.580078 L 19.845703 22.308594 A 3.9987942 3.9987942 0 0 0 21.335938 20.923828 z "
     transform="scale(0.26457975)" />
  <g
     fill="#fff"
     id="g21" />
</svg>
